<?xml version="1.0" encoding="UTF-8" standalone="no"?>
<!-- Created with Inkscape (http://www.inkscape.org/) -->
<svg
   xmlns:dc="http://purl.org/dc/elements/1.1/"
   xmlns:cc="http://creativecommons.org/ns#"
   xmlns:rdf="http://www.w3.org/1999/02/22-rdf-syntax-ns#"
   xmlns:svg="http://www.w3.org/2000/svg"
   xmlns="http://www.w3.org/2000/svg"
   xmlns:sodipodi="http://sodipodi.sourceforge.net/DTD/sodipodi-0.dtd"
   xmlns:inkscape="http://www.inkscape.org/namespaces/inkscape"
   height="594.6637"
   id="svg2"
   inkscape:version="0.45+devel"
   sodipodi:docbase="/home/luca"
   sodipodi:docname="logic_functions_digital_01.svg"
   sodipodi:version="0.32"
   width="580.65863"
   inkscape:output_extension="org.inkscape.output.svg.inkscape"
   version="1.0"
   inkscape:export-filename="/Users/johnolsen/Pictures/by author build/assorted authors/logic_functions_digital_01.png"
   inkscape:export-xdpi="90"
   inkscape:export-ydpi="90">
  <metadata
     id="metadata3">
    <rdf:RDF>
      <cc:Work
         rdf:about="">
        <dc:title>Logic Functions (Digital Electronics)</dc:title>
        <dc:description>http://www.wikitronics.org</dc:description>
        <dc:subject>
          <rdf:Bag>
            <rdf:li>symbol</rdf:li>
            <rdf:li>computer</rdf:li>
          </rdf:Bag>
        </dc:subject>
        <dc:publisher>
          <cc:Agent
             rdf:about="http://www.openclipart.org/">
            <dc:title>Open Clip Art Library</dc:title>
          </cc:Agent>
        </dc:publisher>
        <dc:creator>
          <cc:Agent
             rdf:about="http://www.wikitronics.org">
            <dc:title>Luca Tomat</dc:title>
          </cc:Agent>
        </dc:creator>
        <dc:rights>
          <cc:Agent
             rdf:about="http://www.wikitronics.org">
            <dc:title>Luca Tomat</dc:title>
          </cc:Agent>
        </dc:rights>
        <dc:date />
        <dc:format>image/svg+xml</dc:format>
        <dc:type
           rdf:resource="http://purl.org/dc/dcmitype/StillImage" />
        <cc:license
           rdf:resource="http://web.resource.org/cc/PublicDomain" />
        <dc:language>en</dc:language>
      </cc:Work>
      <cc:License
         rdf:about="http://web.resource.org/cc/PublicDomain">
        <cc:permits
           rdf:resource="http://web.resource.org/cc/Reproduction" />
        <cc:permits
           rdf:resource="http://web.resource.org/cc/Distribution" />
        <cc:permits
           rdf:resource="http://web.resource.org/cc/DerivativeWorks" />
      </cc:License>
    </rdf:RDF>
  </metadata>
  <defs
     id="defs3">
    <marker
       id="TriangleOutS"
       inkscape:stockid="TriangleOutS"
       orient="auto"
       refX="0"
       refY="0"
       style="overflow:visible">
      <path
         d="M 5.77,0 L -2.88,5 L -2.88,-5 L 5.77,0 z"
         id="path1051"
         sodipodi:nodetypes="cccc"
         style="fill-rule:evenodd;stroke:#000000;stroke-width:1pt;marker-start:none"
         transform="scale(0.2,0.2)" />
    </marker>
  </defs>
  <sodipodi:namedview
     bordercolor="#666666"
     borderopacity="1.0"
     id="base"
     inkscape:current-layer="layer1"
     inkscape:cx="452.07304"
     inkscape:cy="796.44597"
     inkscape:document-units="px"
     inkscape:pageopacity="0.0"
     inkscape:pageshadow="2"
     inkscape:window-height="950"
     inkscape:window-width="1276"
     inkscape:window-x="0"
     inkscape:window-y="0"
     inkscape:zoom="0.98994949"
     pagecolor="#ffffff"
     showgrid="true"
     showguides="false" />
  <g
     id="layer1"
     inkscape:groupmode="layer"
     inkscape:label="Layer 1"
     transform="translate(-80.976088,-177.49434)">
    <g
       id="g9489"
       transform="translate(26.26829,135.332)">
      <path
         d="M 126.01175,176.12095 L 75.924583,176.12095"
         id="path2928"
         style="fill:none;fill-opacity:0.75;fill-rule:evenodd;stroke:#000000;stroke-width:2.59711337px;stroke-linecap:butt;stroke-linejoin:miter;stroke-opacity:1" />
      <path
         d="M 126.01178,210.43989 L 75.924613,210.43989"
         id="path2930"
         style="fill:none;fill-opacity:0.75;fill-rule:evenodd;stroke:#000000;stroke-width:2.59711337px;stroke-linecap:butt;stroke-linejoin:miter;stroke-opacity:1" />
      <path
         style="font-size:20.77690697px;font-style:normal;font-variant:normal;font-weight:normal;font-stretch:normal;line-height:100%;writing-mode:lr-tb;text-anchor:start;fill:#000000;fill-opacity:1;stroke:none;stroke-width:1pt;stroke-linecap:butt;stroke-linejoin:miter;stroke-opacity:1;font-family:Bitstream Vera Sans"
         d="M 62.388355,170.56659 L 59.608632,178.1043 L 65.178223,178.1043 L 62.388355,170.56659 M 61.231828,168.54774 L 63.555027,168.54774 L 69.327517,183.69418 L 67.197072,183.69418 L 65.817356,179.80866 L 58.989788,179.80866 L 57.610072,183.69418 L 55.449192,183.69418 L 61.231828,168.54774"
         id="text2934" />
      <path
         d="M 125.62177,162.68248 C 142.29508,162.8107 159.00101,162.27548 175.64781,163.36245 C 182.82904,164.53064 185.83527,166.48595 190.1043,170.47436 C 196.99203,177.16985 199.48318,187.5808 198.67402,196.78 C 198.19896,203.91975 194.76137,211.77841 188.61172,216.49846 C 185.00256,219.23646 180.86951,220.94279 175.50084,221.88225 C 165.45845,223.20976 155.29776,222.6338 145.19642,222.81864 C 138.67133,222.82461 132.14556,222.82684 125.62177,222.97259 C 125.62177,202.8759 125.62177,182.77917 125.62177,162.68248 z"
         id="path2898"
         sodipodi:nodetypes="ccccccccc"
         style="fill:none;fill-opacity:1;fill-rule:evenodd;stroke:#0000a9;stroke-width:2.59711337;stroke-linecap:butt;stroke-linejoin:round;marker:none;marker-start:none;marker-mid:none;marker-end:none;stroke-miterlimit:4;stroke-dashoffset:0;stroke-opacity:1;visibility:visible;display:inline;overflow:visible" />
      <path
         d="M 258.4182,192.49487 L 208.33103,192.49487"
         id="path2932"
         style="fill:none;fill-opacity:0.75;fill-rule:evenodd;stroke:#000000;stroke-width:2.59711337px;stroke-linecap:butt;stroke-linejoin:miter;stroke-opacity:1" />
      <path
         style="font-size:20.77690697px;font-style:normal;font-variant:normal;font-weight:normal;font-stretch:normal;line-height:100%;writing-mode:lr-tb;text-anchor:start;fill:#000000;fill-opacity:1;stroke:none;stroke-width:1pt;stroke-linecap:butt;stroke-linejoin:miter;stroke-opacity:1;font-family:Bitstream Vera Sans"
         d="M 265.33418,184.7797 L 267.53564,184.7797 L 271.73565,191.00872 L 275.90524,184.7797 L 278.1067,184.7797 L 272.75015,192.71307 L 272.75015,199.92615 L 270.69072,199.92615 L 270.69072,192.71307 L 265.33418,184.7797"
         id="text2942" />
      <path
         d="M 262.63966,439.45212 A 1.7046324,1.767767 0 1 1 259.2304,439.45212 A 1.7046324,1.767767 0 1 1 262.63966,439.45212 z"
         id="path2900"
         sodipodi:cx="260.93503"
         sodipodi:cy="439.45212"
         sodipodi:rx="1.7046324"
         sodipodi:ry="1.767767"
         sodipodi:type="arc"
         style="fill:none;fill-opacity:1;fill-rule:evenodd;stroke:#0000a9;stroke-width:1;stroke-linecap:butt;stroke-linejoin:round;marker:none;marker-start:none;marker-mid:none;marker-end:none;stroke-miterlimit:4;stroke-dashoffset:0;stroke-opacity:1;visibility:visible;display:inline;overflow:visible"
         transform="matrix(2.597113,0,0,2.597113,-473.2428,-948.4903)" />
      <path
         style="font-size:20.77690697px;font-style:normal;font-variant:normal;font-weight:normal;font-stretch:normal;line-height:100%;writing-mode:lr-tb;text-anchor:start;fill:#000000;fill-opacity:1;stroke:none;stroke-width:1pt;stroke-linecap:butt;stroke-linejoin:miter;stroke-opacity:1;font-family:Bitstream Vera Sans"
         d="M 59.839104,210.77973 L 59.839104,216.32903 L 63.126075,216.32903 C 64.228487,216.32903 65.043466,216.10246 65.571014,215.64931 C 66.105306,215.18941 66.372456,214.48941 66.372467,213.5493 C 66.372456,212.60244 66.105306,211.90582 65.571014,211.45944 C 65.043466,211.0063 64.228487,210.77973 63.126075,210.77973 L 59.839104,210.77973 M 59.839104,204.55071 L 59.839104,209.11595 L 62.872451,209.11595 C 63.873413,209.11596 64.617378,208.92997 65.104345,208.55798 C 65.598057,208.17924 65.844918,207.60436 65.844928,206.83333 C 65.844918,206.06909 65.598057,205.49759 65.104345,205.11883 C 64.617378,204.7401 63.873413,204.55072 62.872451,204.55071 L 59.839104,204.55071 M 57.789819,202.86665 L 63.024625,202.86665 C 64.586943,202.86666 65.790812,203.1913 66.636236,203.84056 C 67.481639,204.48986 67.904346,205.41305 67.904358,206.61014 C 67.904346,207.53673 67.68792,208.27393 67.25508,208.82175 C 66.822216,209.36958 66.186465,209.71113 65.347825,209.84639 C 66.355548,210.06282 67.13671,210.51596 67.691314,211.20581 C 68.252656,211.88892 68.533334,212.74447 68.533346,213.77249 C 68.533334,215.12516 68.073429,216.17009 67.15363,216.90729 C 66.233808,217.64449 64.925108,218.01309 63.227525,218.01309 L 57.789819,218.01309 L 57.789819,202.86665"
         id="text2938" />
    </g>
    <g
       id="g9477"
       transform="translate(26.26829,135.332)">
      <path
         d="M 125.27041,56.083488 L 75.183233,56.083488"
         id="path2902"
         style="fill:none;fill-opacity:0.75;fill-rule:evenodd;stroke:#000000;stroke-width:2.59711337px;stroke-linecap:butt;stroke-linejoin:miter;stroke-opacity:1" />
      <path
         d="M 125.27043,90.402418 L 75.183263,90.402418"
         id="path2904"
         style="fill:none;fill-opacity:0.75;fill-rule:evenodd;stroke:#000000;stroke-width:2.59711337px;stroke-linecap:butt;stroke-linejoin:miter;stroke-opacity:1" />
      <path
         d="M 248.40145,73.616838 L 198.31427,73.616838"
         id="path2906"
         style="fill:none;fill-opacity:0.75;fill-rule:evenodd;stroke:#000000;stroke-width:2.59711337px;stroke-linecap:butt;stroke-linejoin:miter;stroke-opacity:1" />
      <path
         d="M 125.50236,43.482638 C 142.17567,43.610858 158.8816,43.075638 175.52839,44.162608 C 182.70962,45.330798 185.71586,47.286108 189.98489,51.274518 C 196.87261,57.970008 199.36377,68.380958 198.55461,77.580158 C 198.07955,84.719908 194.64195,92.578568 188.4923,97.298618 C 184.88314,100.03662 180.7501,101.74295 175.38142,102.68241 C 165.33904,104.00992 155.17835,103.43396 145.07701,103.6188 C 138.55192,103.62477 132.02615,103.627 125.50236,103.77275 C 125.50236,83.676058 125.50236,63.579328 125.50236,43.482638 z"
         id="rect1358"
         sodipodi:nodetypes="ccccccccc"
         style="fill:none;fill-opacity:1;fill-rule:evenodd;stroke:#0000a9;stroke-width:2.59711337;stroke-linecap:butt;stroke-linejoin:round;marker:none;marker-start:none;marker-mid:none;marker-end:none;stroke-miterlimit:4;stroke-dashoffset:0;stroke-opacity:1;visibility:visible;display:inline;overflow:visible" />
      <path
         style="font-size:20.77690697px;font-style:normal;font-variant:normal;font-weight:normal;font-stretch:normal;line-height:100%;writing-mode:lr-tb;text-anchor:start;fill:#000000;fill-opacity:1;stroke:none;stroke-width:1pt;stroke-linecap:butt;stroke-linejoin:miter;stroke-opacity:1;font-family:Bitstream Vera Sans"
         d="M 61.646961,50.529107 L 58.867238,58.066823 L 64.436829,58.066823 L 61.646961,50.529107 M 60.490434,48.510258 L 62.813633,48.510258 L 68.586123,63.656704 L 66.455678,63.656704 L 65.075962,59.771179 L 58.248394,59.771179 L 56.868678,63.656704 L 54.707798,63.656704 L 60.490434,48.510258"
         id="text2916" />
      <path
         style="font-size:20.77690697px;font-style:normal;font-variant:normal;font-weight:normal;font-stretch:normal;line-height:100%;writing-mode:lr-tb;text-anchor:start;fill:#000000;fill-opacity:1;stroke:none;stroke-width:1pt;stroke-linecap:butt;stroke-linejoin:miter;stroke-opacity:1;font-family:Bitstream Vera Sans"
         d="M 59.09771,90.742273 L 59.09771,96.291574 L 62.384681,96.291574 C 63.487093,96.291575 64.302072,96.065004 64.82962,95.61186 C 65.363912,95.151958 65.631062,94.451955 65.631073,93.511851 C 65.631062,92.564992 65.363912,91.868371 64.82962,91.421986 C 64.302072,90.968851 63.487093,90.74228 62.384681,90.742273 L 59.09771,90.742273 M 59.09771,84.513259 L 59.09771,89.078497 L 62.131057,89.078497 C 63.132019,89.078506 63.875983,88.892515 64.362951,88.520523 C 64.856663,88.141788 65.103524,87.566906 65.103534,86.795878 C 65.103524,86.031635 64.856663,85.460135 64.362951,85.081377 C 63.875983,84.702645 63.132019,84.513272 62.131057,84.513259 L 59.09771,84.513259 M 57.048425,82.829193 L 62.283231,82.829193 C 63.845549,82.829208 65.049418,83.153847 65.894842,83.803111 C 66.740245,84.452402 67.162952,85.375594 67.162964,86.572688 C 67.162952,87.499273 66.946526,88.236474 66.513686,88.784293 C 66.080822,89.33213 65.445071,89.673677 64.60643,89.808935 C 65.614154,90.025369 66.395316,90.478511 66.949919,91.168362 C 67.511262,91.851463 67.79194,92.707021 67.791952,93.73504 C 67.79194,95.087706 67.332035,96.132638 66.412236,96.869837 C 65.492414,97.607039 64.183714,97.975639 62.486131,97.975639 L 57.048425,97.975639 L 57.048425,82.829193"
         id="text2920" />
      <path
         style="font-size:20.77690697px;font-style:normal;font-variant:normal;font-weight:normal;font-stretch:normal;line-height:100%;writing-mode:lr-tb;text-anchor:start;fill:#000000;fill-opacity:1;stroke:none;stroke-width:1pt;stroke-linecap:butt;stroke-linejoin:miter;stroke-opacity:1;font-family:Bitstream Vera Sans"
         d="M 255.31738,65.901581 L 257.51884,65.901581 L 261.71885,72.130595 L 265.88844,65.901581 L 268.0899,65.901581 L 262.73335,73.83495 L 262.73335,81.048027 L 260.67392,81.048027 L 260.67392,73.83495 L 255.31738,65.901581"
         id="text2924" />
    </g>
    <g
       id="g9502"
       transform="translate(26.26829,135.332)">
      <path
         d="M 131.59674,278.35373 L 81.509573,278.35373"
         id="path4490"
         style="fill:none;fill-opacity:0.75;fill-rule:evenodd;stroke:#000000;stroke-width:2.59711337px;stroke-linecap:butt;stroke-linejoin:miter;stroke-opacity:1" />
      <path
         d="M 131.59677,312.67267 L 81.509603,312.67267"
         id="path4492"
         style="fill:none;fill-opacity:0.75;fill-rule:evenodd;stroke:#000000;stroke-width:2.59711337px;stroke-linecap:butt;stroke-linejoin:miter;stroke-opacity:1" />
      <path
         style="font-size:20.77690697px;font-style:normal;font-variant:normal;font-weight:normal;font-stretch:normal;line-height:100%;writing-mode:lr-tb;text-anchor:start;fill:#000000;fill-opacity:1;stroke:none;stroke-width:1pt;stroke-linecap:butt;stroke-linejoin:miter;stroke-opacity:1;font-family:Bitstream Vera Sans"
         d="M 67.973346,272.79931 L 65.193623,280.33703 L 70.763214,280.33703 L 67.973346,272.79931 M 66.816819,270.78046 L 69.140018,270.78046 L 74.912508,285.92691 L 72.782064,285.92691 L 71.402347,282.04139 L 64.57478,282.04139 L 63.195063,285.92691 L 61.034184,285.92691 L 66.816819,270.78046"
         id="text4494" />
      <path
         d="M 244.59674,296.08929 L 194.50957,296.08929"
         id="path4502"
         style="fill:none;fill-opacity:0.75;fill-rule:evenodd;stroke:#000000;stroke-width:2.59711337px;stroke-linecap:butt;stroke-linejoin:miter;stroke-opacity:1" />
      <path
         style="font-size:20.77690697px;font-style:normal;font-variant:normal;font-weight:normal;font-stretch:normal;line-height:100%;writing-mode:lr-tb;text-anchor:start;fill:#000000;fill-opacity:1;stroke:none;stroke-width:1pt;stroke-linecap:butt;stroke-linejoin:miter;stroke-opacity:1;font-family:Bitstream Vera Sans"
         d="M 251.51275,288.37409 L 253.71421,288.37409 L 257.91423,294.60311 L 262.08381,288.37409 L 264.28527,288.37409 L 258.92873,296.30746 L 258.92873,303.52054 L 256.8693,303.52054 L 256.8693,296.30746 L 251.51275,288.37409"
         id="text4504" />
      <path
         d="M 125.1953,263.07411 C 132.45335,275.64542 134.23931,285.15748 134.23931,295.56011 C 134.23931,308.11485 131.08846,317.86686 125.1953,328.07411 C 147.98082,328.07411 182.89561,317.20612 195.66004,296.23896 C 182.76735,276.73965 147.6155,263.07411 125.1953,263.07411 z"
         id="path2946"
         sodipodi:nodetypes="csccc"
         style="fill:none;fill-opacity:0.75;fill-rule:evenodd;stroke:#0000a9;stroke-width:2.5999999;stroke-linecap:butt;stroke-linejoin:miter;stroke-miterlimit:4;stroke-opacity:1" />
      <path
         style="font-size:20.77690697px;font-style:normal;font-variant:normal;font-weight:normal;font-stretch:normal;line-height:100%;writing-mode:lr-tb;text-anchor:start;fill:#000000;fill-opacity:1;stroke:none;stroke-width:1pt;stroke-linecap:butt;stroke-linejoin:miter;stroke-opacity:1;font-family:Bitstream Vera Sans"
         d="M 65.424095,313.01245 L 65.424095,318.56175 L 68.711067,318.56175 C 69.813479,318.56176 70.628457,318.33518 71.156005,317.88204 C 71.690297,317.42214 71.957448,316.72213 71.957458,315.78203 C 71.957448,314.83517 71.690297,314.13855 71.156005,313.69217 C 70.628457,313.23903 69.813479,313.01246 68.711067,313.01245 L 65.424095,313.01245 M 65.424095,306.78344 L 65.424095,311.34868 L 68.457442,311.34868 C 69.458405,311.34869 70.202369,311.16269 70.689337,310.7907 C 71.183049,310.41197 71.42991,309.83709 71.42992,309.06606 C 71.42991,308.30181 71.183049,307.73032 70.689337,307.35156 C 70.202369,306.97282 69.458405,306.78345 68.457442,306.78344 L 65.424095,306.78344 M 63.37481,305.09937 L 68.609617,305.09937 C 70.171934,305.09939 71.375803,305.42403 72.221228,306.07329 C 73.06663,306.72258 73.489337,307.64577 73.489349,308.84287 C 73.489337,309.76945 73.272911,310.50665 72.840071,311.05447 C 72.407208,311.60231 71.771457,311.94386 70.932816,312.07911 C 71.940539,312.29555 72.721702,312.74869 73.276305,313.43854 C 73.837648,314.12164 74.118325,314.9772 74.118338,316.00522 C 74.118325,317.35789 73.65842,318.40282 72.738621,319.14002 C 71.8188,319.87722 70.5101,320.24582 68.812516,320.24582 L 63.37481,320.24582 L 63.37481,305.09937"
         id="text4498" />
    </g>
    <g
       id="g9514"
       transform="translate(26.26829,135.332)">
      <path
         d="M 128.532,383.35381 L 78.444833,383.35381"
         id="path4508"
         style="fill:none;fill-opacity:0.75;fill-rule:evenodd;stroke:#000000;stroke-width:2.59711337px;stroke-linecap:butt;stroke-linejoin:miter;stroke-opacity:1" />
      <path
         d="M 128.53203,417.67275 L 78.444863,417.67275"
         id="path4510"
         style="fill:none;fill-opacity:0.75;fill-rule:evenodd;stroke:#000000;stroke-width:2.59711337px;stroke-linecap:butt;stroke-linejoin:miter;stroke-opacity:1" />
      <path
         style="font-size:20.77690697px;font-style:normal;font-variant:normal;font-weight:normal;font-stretch:normal;line-height:100%;writing-mode:lr-tb;text-anchor:start;fill:#000000;fill-opacity:1;stroke:none;stroke-width:1pt;stroke-linecap:butt;stroke-linejoin:miter;stroke-opacity:1;font-family:Bitstream Vera Sans"
         d="M 64.908618,377.79931 L 62.128896,385.33703 L 67.698486,385.33703 L 64.908618,377.79931 M 63.752091,375.78046 L 66.07529,375.78046 L 71.847781,390.92691 L 69.717336,390.92691 L 68.33762,387.04139 L 61.510052,387.04139 L 60.130336,390.92691 L 57.969456,390.92691 L 63.752091,375.78046"
         id="text4512" />
      <path
         d="M 252.20679,401.08939 L 202.11962,401.08939"
         id="path4516"
         style="fill:none;fill-opacity:0.75;fill-rule:evenodd;stroke:#000000;stroke-width:2.59711337px;stroke-linecap:butt;stroke-linejoin:miter;stroke-opacity:1" />
      <path
         style="font-size:20.77690697px;font-style:normal;font-variant:normal;font-weight:normal;font-stretch:normal;line-height:100%;writing-mode:lr-tb;text-anchor:start;fill:#000000;fill-opacity:1;stroke:none;stroke-width:1pt;stroke-linecap:butt;stroke-linejoin:miter;stroke-opacity:1;font-family:Bitstream Vera Sans"
         d="M 259.12278,393.37409 L 261.32424,393.37409 L 265.52426,399.60311 L 269.69384,393.37409 L 271.8953,393.37409 L 266.53876,401.30746 L 266.53876,408.52054 L 264.47933,408.52054 L 264.47933,401.30746 L 259.12278,393.37409"
         id="text4518" />
      <path
         d="M 122.13056,368.07419 C 129.38861,380.6455 131.17457,390.15756 131.17457,400.56019 C 131.17457,413.11493 128.02372,422.86694 122.13056,433.07419 C 144.91608,433.07419 179.83087,422.2062 192.5953,401.23904 C 179.70261,381.73973 144.55076,368.07419 122.13056,368.07419 z"
         id="path4522"
         sodipodi:nodetypes="csccc"
         style="fill:none;fill-opacity:0.75;fill-rule:evenodd;stroke:#0000a9;stroke-width:2.5999999;stroke-linecap:butt;stroke-linejoin:miter;stroke-miterlimit:4;stroke-opacity:1" />
      <path
         style="font-size:20.77690697px;font-style:normal;font-variant:normal;font-weight:normal;font-stretch:normal;line-height:100%;writing-mode:lr-tb;text-anchor:start;fill:#000000;fill-opacity:1;stroke:none;stroke-width:1pt;stroke-linecap:butt;stroke-linejoin:miter;stroke-opacity:1;font-family:Bitstream Vera Sans"
         d="M 62.359367,418.01245 L 62.359367,423.56175 L 65.646339,423.56175 C 66.748751,423.56176 67.56373,423.33518 68.091278,422.88204 C 68.625569,422.42214 68.89272,421.72213 68.892731,420.78203 C 68.89272,419.83517 68.625569,419.13855 68.091278,418.69217 C 67.56373,418.23903 66.748751,418.01246 65.646339,418.01245 L 62.359367,418.01245 M 62.359367,411.78344 L 62.359367,416.34868 L 65.392715,416.34868 C 66.393677,416.34869 67.137641,416.16269 67.624609,415.7907 C 68.118321,415.41197 68.365182,414.83709 68.365192,414.06606 C 68.365182,413.30181 68.118321,412.73032 67.624609,412.35156 C 67.137641,411.97282 66.393677,411.78345 65.392715,411.78344 L 62.359367,411.78344 M 60.310082,410.09937 L 65.544889,410.09937 C 67.107206,410.09939 68.311075,410.42403 69.1565,411.07329 C 70.001903,411.72258 70.42461,412.64577 70.424622,413.84287 C 70.42461,414.76945 70.208184,415.50665 69.775343,416.05447 C 69.34248,416.60231 68.706729,416.94386 67.868088,417.07911 C 68.875812,417.29555 69.656974,417.74869 70.211577,418.43854 C 70.77292,419.12164 71.053597,419.9772 71.05361,421.00522 C 71.053597,422.35789 70.593692,423.40282 69.673894,424.14002 C 68.754072,424.87722 67.445372,425.24582 65.747789,425.24582 L 60.310082,425.24582 L 60.310082,410.09937"
         id="text4524" />
      <path
         d="M 262.63966,439.45212 A 1.7046324,1.767767 0 1 1 259.2304,439.45212 A 1.7046324,1.767767 0 1 1 262.63966,439.45212 z"
         id="path6044"
         sodipodi:cx="260.93503"
         sodipodi:cy="439.45212"
         sodipodi:rx="1.7046324"
         sodipodi:ry="1.767767"
         sodipodi:type="arc"
         style="fill:none;fill-opacity:1;fill-rule:evenodd;stroke:#0000a9;stroke-width:1;stroke-linecap:butt;stroke-linejoin:round;marker:none;marker-start:none;marker-mid:none;marker-end:none;stroke-miterlimit:4;stroke-dashoffset:0;stroke-opacity:1;visibility:visible;display:inline;overflow:visible"
         transform="matrix(2.597113,0,0,2.597113,-480.0551,-740.0437)" />
    </g>
    <path
       style="font-size:20.77690697px;font-style:normal;font-variant:normal;font-weight:normal;font-stretch:normal;line-height:100%;writing-mode:lr-tb;text-anchor:start;fill:#000000;fill-opacity:1;stroke:none;stroke-width:1pt;stroke-linecap:butt;stroke-linejoin:miter;stroke-opacity:1;font-family:Bitstream Vera Sans"
       d="M 443.81749,203.56656 L 441.03776,211.10427 L 446.60735,211.10427 L 443.81749,203.56656 M 442.66096,201.54771 L 444.98416,201.54771 L 450.75665,216.69415 L 448.6262,216.69415 L 447.24649,212.80863 L 440.41892,212.80863 L 439.0392,216.69415 L 436.87832,216.69415 L 442.66096,201.54771"
       id="text6814" />
    <g
       id="g9607"
       transform="translate(84.87833,125.233)">
      <path
         style="font-size:20.77690697px;font-style:normal;font-variant:normal;font-weight:normal;font-stretch:normal;line-height:100%;writing-mode:lr-tb;text-anchor:start;fill:#000000;fill-opacity:1;stroke:none;stroke-width:1pt;stroke-linecap:butt;stroke-linejoin:miter;stroke-opacity:1;font-family:Bitstream Vera Sans"
         d="M 358.54927,187.23459 L 355.76954,194.7723 L 361.33913,194.7723 L 358.54927,187.23459 M 357.39274,185.21574 L 359.71594,185.21574 L 365.48843,200.36218 L 363.35798,200.36218 L 361.97827,196.47666 L 355.1507,196.47666 L 353.77098,200.36218 L 351.6101,200.36218 L 357.39274,185.21574"
         id="text6818" />
      <path
         d="M 530.70144,192.07745 L 480.61426,192.07745"
         id="path6822"
         style="fill:none;fill-opacity:0.75;fill-rule:evenodd;stroke:#000000;stroke-width:2.59711337px;stroke-linecap:butt;stroke-linejoin:miter;stroke-opacity:1" />
      <path
         style="font-size:20.77690697px;font-style:normal;font-variant:normal;font-weight:normal;font-stretch:normal;line-height:100%;writing-mode:lr-tb;text-anchor:start;fill:#000000;fill-opacity:1;stroke:none;stroke-width:1pt;stroke-linecap:butt;stroke-linejoin:miter;stroke-opacity:1;font-family:Bitstream Vera Sans"
         d="M 537.61744,184.36219 L 539.8189,184.36219 L 544.01892,190.5912 L 548.1885,184.36219 L 550.38996,184.36219 L 545.03342,192.29556 L 545.03342,199.50864 L 542.97399,199.50864 L 542.97399,192.29556 L 537.61744,184.36219"
         id="text6824" />
      <path
         d="M 421.99583,192.66074 L 371.90865,192.66074"
         id="path6828"
         style="fill:none;fill-opacity:0.75;fill-rule:evenodd;stroke:#000000;stroke-width:2.59711337px;stroke-linecap:butt;stroke-linejoin:miter;stroke-opacity:1" />
      <path
         d="M 471.87869,190.70206 L 421.66994,219.69009 L 421.66994,161.71402 L 471.87869,190.70206 z"
         id="path6830"
         inkscape:flatsided="true"
         inkscape:randomized="0"
         inkscape:rounded="0"
         sodipodi:arg1="0"
         sodipodi:arg2="1.0471976"
         sodipodi:cx="438.40619"
         sodipodi:cy="190.70206"
         sodipodi:r1="33.4725"
         sodipodi:r2="16.73625"
         sodipodi:sides="3"
         sodipodi:type="star"
         style="fill:none;fill-opacity:1;fill-rule:evenodd;stroke:#0000a9;stroke-width:2.5999999;stroke-linecap:butt;stroke-linejoin:round;marker:none;marker-start:none;marker-mid:none;marker-end:none;stroke-miterlimit:4;stroke-dashoffset:0;stroke-opacity:1;visibility:visible;display:inline;overflow:visible"
         transform="translate(-0.389912,2.04709)" />
      <path
         d="M 262.63966,439.45212 A 1.7046324,1.767767 0 1 1 259.2304,439.45212 A 1.7046324,1.767767 0 1 1 262.63966,439.45212 z"
         id="path6832"
         sodipodi:cx="260.93503"
         sodipodi:cy="439.45212"
         sodipodi:rx="1.7046324"
         sodipodi:ry="1.767767"
         sodipodi:type="arc"
         style="fill:none;fill-opacity:1;fill-rule:evenodd;stroke:#0000a9;stroke-width:1;stroke-linecap:butt;stroke-linejoin:round;marker:none;marker-start:none;marker-mid:none;marker-end:none;stroke-miterlimit:4;stroke-dashoffset:0;stroke-opacity:1;visibility:visible;display:inline;overflow:visible"
         transform="matrix(2.597113,0,0,2.597113,-201.4028,-948.8336)" />
    </g>
    <g
       id="g9527"
       transform="translate(26.26829,135.332)">
      <path
         d="M 129.22193,495.92518 L 79.13476,495.92518"
         id="path6854"
         style="fill:none;fill-opacity:0.75;fill-rule:evenodd;stroke:#000000;stroke-width:2.59711337px;stroke-linecap:butt;stroke-linejoin:miter;stroke-opacity:1" />
      <path
         d="M 129.22196,530.24412 L 79.13479,530.24412"
         id="path6856"
         style="fill:none;fill-opacity:0.75;fill-rule:evenodd;stroke:#000000;stroke-width:2.59711337px;stroke-linecap:butt;stroke-linejoin:miter;stroke-opacity:1" />
      <path
         style="font-size:20.77690697px;font-style:normal;font-variant:normal;font-weight:normal;font-stretch:normal;line-height:100%;writing-mode:lr-tb;text-anchor:start;fill:#000000;fill-opacity:1;stroke:none;stroke-width:1pt;stroke-linecap:butt;stroke-linejoin:miter;stroke-opacity:1;font-family:Bitstream Vera Sans"
         d="M 65.598537,490.37076 L 62.818814,497.90847 L 68.388405,497.90847 L 65.598537,490.37076 M 64.44201,488.35191 L 66.765209,488.35191 L 72.537699,503.49835 L 70.407255,503.49835 L 69.027538,499.61283 L 62.199971,499.61283 L 60.820254,503.49835 L 58.659375,503.49835 L 64.44201,488.35191"
         id="text6858" />
      <path
         d="M 250.22193,513.66074 L 200.13476,513.66074"
         id="path6862"
         style="fill:none;fill-opacity:0.75;fill-rule:evenodd;stroke:#000000;stroke-width:2.59711337px;stroke-linecap:butt;stroke-linejoin:miter;stroke-opacity:1" />
      <path
         style="font-size:20.77690697px;font-style:normal;font-variant:normal;font-weight:normal;font-stretch:normal;line-height:100%;writing-mode:lr-tb;text-anchor:start;fill:#000000;fill-opacity:1;stroke:none;stroke-width:1pt;stroke-linecap:butt;stroke-linejoin:miter;stroke-opacity:1;font-family:Bitstream Vera Sans"
         d="M 257.13795,505.94553 L 259.33941,505.94553 L 263.53943,512.17455 L 267.70901,505.94553 L 269.91047,505.94553 L 264.55392,513.8789 L 264.55392,521.09198 L 262.49449,521.09198 L 262.49449,513.8789 L 257.13795,505.94553"
         id="text6864" />
      <path
         d="M 130.82049,480.64556 C 138.07854,493.21687 139.8645,502.72893 139.8645,513.13156 C 139.8645,525.6863 136.71365,535.43831 130.82049,545.64556 C 153.60601,545.64556 188.5208,534.77757 201.28523,513.81041 C 188.39254,494.3111 153.24069,480.64556 130.82049,480.64556 z"
         id="path6868"
         sodipodi:nodetypes="csccc"
         style="fill:none;fill-opacity:0.75;fill-rule:evenodd;stroke:#0000a9;stroke-width:2.5999999;stroke-linecap:butt;stroke-linejoin:miter;stroke-miterlimit:4;stroke-opacity:1" />
      <path
         style="font-size:20.77690697px;font-style:normal;font-variant:normal;font-weight:normal;font-stretch:normal;line-height:100%;writing-mode:lr-tb;text-anchor:start;fill:#000000;fill-opacity:1;stroke:none;stroke-width:1pt;stroke-linecap:butt;stroke-linejoin:miter;stroke-opacity:1;font-family:Bitstream Vera Sans"
         d="M 63.049286,530.58389 L 63.049286,536.1332 L 66.336257,536.1332 C 67.438669,536.1332 68.253648,535.90663 68.781196,535.45348 C 69.315488,534.99358 69.582638,534.29358 69.582649,533.35347 C 69.582638,532.40661 69.315488,531.70999 68.781196,531.26361 C 68.253648,530.81047 67.438669,530.5839 66.336257,530.58389 L 63.049286,530.58389 M 63.049286,524.35488 L 63.049286,528.92012 L 66.082633,528.92012 C 67.083596,528.92013 67.82756,528.73414 68.314527,528.36214 C 68.80824,527.98341 69.0551,527.40853 69.05511,526.6375 C 69.0551,525.87326 68.80824,525.30176 68.314527,524.923 C 67.82756,524.54427 67.083596,524.35489 66.082633,524.35488 L 63.049286,524.35488 M 61.000001,522.67081 L 66.234808,522.67081 C 67.797125,522.67083 69.000994,522.99547 69.846418,523.64473 C 70.691821,524.29402 71.114528,525.21722 71.11454,526.41431 C 71.114528,527.34089 70.898102,528.0781 70.465262,528.62591 C 70.032399,529.17375 69.396647,529.5153 68.558007,529.65056 C 69.56573,529.86699 70.346892,530.32013 70.901496,531.00998 C 71.462838,531.69308 71.743516,532.54864 71.743529,533.57666 C 71.743516,534.92933 71.283611,535.97426 70.363812,536.71146 C 69.443991,537.44866 68.13529,537.81726 66.437707,537.81726 L 61.000001,537.81726 L 61.000001,522.67081"
         id="text6870" />
      <path
         d="M 122.3,480.66218 C 129.55805,493.23349 131.34401,502.74555 131.34401,513.14818 C 131.34401,525.70292 128.19316,535.45493 122.3,545.66218"
         id="path6874"
         sodipodi:nodetypes="ccc"
         style="fill:none;fill-opacity:0.75;fill-rule:evenodd;stroke:#0000a9;stroke-width:2.5999999;stroke-linecap:round;stroke-linejoin:round;stroke-miterlimit:4;stroke-opacity:1" />
    </g>
    <g
       id="g9540"
       transform="translate(26.26829,135.332)">
      <path
         d="M 129.22193,585.78903 L 79.134761,585.78903"
         id="path7638"
         style="fill:none;fill-opacity:0.75;fill-rule:evenodd;stroke:#000000;stroke-width:2.59711337px;stroke-linecap:butt;stroke-linejoin:miter;stroke-opacity:1" />
      <path
         d="M 129.22196,620.10797 L 79.134791,620.10797"
         id="path7640"
         style="fill:none;fill-opacity:0.75;fill-rule:evenodd;stroke:#000000;stroke-width:2.59711337px;stroke-linecap:butt;stroke-linejoin:miter;stroke-opacity:1" />
      <path
         style="font-size:20.77690697px;font-style:normal;font-variant:normal;font-weight:normal;font-stretch:normal;line-height:100%;writing-mode:lr-tb;text-anchor:start;fill:#000000;fill-opacity:1;stroke:none;stroke-width:1pt;stroke-linecap:butt;stroke-linejoin:miter;stroke-opacity:1;font-family:Bitstream Vera Sans"
         d="M 65.598537,580.23459 L 62.818814,587.7723 L 68.388405,587.7723 L 65.598537,580.23459 M 64.44201,578.21574 L 66.765209,578.21574 L 72.537699,593.36218 L 70.407255,593.36218 L 69.027538,589.47666 L 62.199971,589.47666 L 60.820254,593.36218 L 58.659375,593.36218 L 64.44201,578.21574"
         id="text7642" />
      <path
         d="M 260.38573,603.52459 L 210.29856,603.52459"
         id="path7646"
         style="fill:none;fill-opacity:0.75;fill-rule:evenodd;stroke:#000000;stroke-width:2.59711337px;stroke-linecap:butt;stroke-linejoin:miter;stroke-opacity:1" />
      <path
         style="font-size:20.77690697px;font-style:normal;font-variant:normal;font-weight:normal;font-stretch:normal;line-height:100%;writing-mode:lr-tb;text-anchor:start;fill:#000000;fill-opacity:1;stroke:none;stroke-width:1pt;stroke-linecap:butt;stroke-linejoin:miter;stroke-opacity:1;font-family:Bitstream Vera Sans"
         d="M 267.30177,595.80936 L 269.50323,595.80936 L 273.70324,602.03838 L 277.87283,595.80936 L 280.07429,595.80936 L 274.71774,603.74273 L 274.71774,610.95581 L 272.65831,610.95581 L 272.65831,603.74273 L 267.30177,595.80936"
         id="text7648" />
      <path
         d="M 130.82049,570.50941 C 138.07854,583.08072 139.8645,592.59278 139.8645,602.99541 C 139.8645,615.55015 136.71365,625.30216 130.82049,635.50941 C 153.60601,635.50941 188.5208,624.64142 201.28523,603.67426 C 188.39254,584.17495 153.24069,570.50941 130.82049,570.50941 z"
         id="path7652"
         sodipodi:nodetypes="csccc"
         style="fill:none;fill-opacity:0.75;fill-rule:evenodd;stroke:#0000a9;stroke-width:2.5999999;stroke-linecap:butt;stroke-linejoin:miter;stroke-miterlimit:4;stroke-opacity:1" />
      <path
         style="font-size:20.77690697px;font-style:normal;font-variant:normal;font-weight:normal;font-stretch:normal;line-height:100%;writing-mode:lr-tb;text-anchor:start;fill:#000000;fill-opacity:1;stroke:none;stroke-width:1pt;stroke-linecap:butt;stroke-linejoin:miter;stroke-opacity:1;font-family:Bitstream Vera Sans"
         d="M 63.049286,620.44772 L 63.049286,625.99703 L 66.336257,625.99703 C 67.438669,625.99703 68.253648,625.77046 68.781196,625.31731 C 69.315488,624.85741 69.582638,624.15741 69.582649,623.2173 C 69.582638,622.27044 69.315488,621.57382 68.781196,621.12744 C 68.253648,620.6743 67.438669,620.44773 66.336257,620.44772 L 63.049286,620.44772 M 63.049286,614.21871 L 63.049286,618.78395 L 66.082633,618.78395 C 67.083596,618.78396 67.82756,618.59797 68.314527,618.22598 C 68.80824,617.84724 69.0551,617.27236 69.05511,616.50133 C 69.0551,615.73709 68.80824,615.16559 68.314527,614.78683 C 67.82756,614.4081 67.083596,614.21872 66.082633,614.21871 L 63.049286,614.21871 M 61.000001,612.53464 L 66.234808,612.53464 C 67.797125,612.53466 69.000994,612.8593 69.846418,613.50856 C 70.691821,614.15785 71.114528,615.08105 71.11454,616.27814 C 71.114528,617.20473 70.898102,617.94193 70.465262,618.48974 C 70.032399,619.03758 69.396647,619.37913 68.558007,619.51439 C 69.56573,619.73082 70.346892,620.18396 70.901496,620.87381 C 71.462838,621.55691 71.743516,622.41247 71.743529,623.44049 C 71.743516,624.79316 71.283611,625.83809 70.363812,626.57529 C 69.443991,627.31249 68.13529,627.68109 66.437707,627.68109 L 61.000001,627.68109 L 61.000001,612.53464"
         id="text7654" />
      <path
         d="M 122.3,570.52603 C 129.55805,583.09734 131.34401,592.6094 131.34401,603.01203 C 131.34401,615.56677 128.19316,625.31878 122.3,635.52603"
         id="path7658"
         sodipodi:nodetypes="ccc"
         style="fill:none;fill-opacity:0.75;fill-rule:evenodd;stroke:#0000a9;stroke-width:2.5999999;stroke-linecap:round;stroke-linejoin:round;stroke-miterlimit:4;stroke-opacity:1" />
      <path
         d="M 262.63966,439.45212 A 1.7046324,1.767767 0 1 1 259.2304,439.45212 A 1.7046324,1.767767 0 1 1 262.63966,439.45212 z"
         id="path7660"
         sodipodi:cx="260.93503"
         sodipodi:cy="439.45212"
         sodipodi:rx="1.7046324"
         sodipodi:ry="1.767767"
         sodipodi:type="arc"
         style="fill:none;fill-opacity:1;fill-rule:evenodd;stroke:#0000a9;stroke-width:1;stroke-linecap:butt;stroke-linejoin:round;marker:none;marker-start:none;marker-mid:none;marker-end:none;stroke-miterlimit:4;stroke-dashoffset:0;stroke-opacity:1;visibility:visible;display:inline;overflow:visible"
         transform="matrix(2.597113,0,0,2.597113,-471.4028,-537.8336)" />
    </g>
    <g
       id="g9568"
       transform="translate(84.87833,135.332)">
      <g
         id="g8627"
         transform="translate(27.64069,39.99795)">
        <path
           d="M 424.65931,438.06477 C 428.16115,438.06477 433.60902,437.85614 434.80257,439.15514 C 435.99612,440.45413 436.93083,445.16006 438.01761,448.92104"
           id="path7813"
           sodipodi:nodetypes="czs"
           style="fill:none;fill-opacity:0.75;fill-rule:evenodd;stroke:#0000a9;stroke-width:2.5999999;stroke-linecap:round;stroke-linejoin:round;stroke-miterlimit:4;stroke-opacity:1" />
        <path
           d="M 441.80141,448.90871 C 438.29957,448.90871 432.8517,449.11733 431.65815,447.81834 C 430.4646,446.51934 429.52989,441.81341 428.44311,438.05243"
           id="path8603"
           sodipodi:nodetypes="czs"
           style="fill:none;fill-opacity:0.75;fill-rule:evenodd;stroke:#0000a9;stroke-width:2.5999999;stroke-linecap:round;stroke-linejoin:round;stroke-miterlimit:4;stroke-opacity:1" />
      </g>
      <path
         d="M 424.66149,466.78898 L 374.57433,466.78898"
         id="path8605"
         style="fill:none;fill-opacity:0.75;fill-rule:evenodd;stroke:#000000;stroke-width:2.59711337px;stroke-linecap:butt;stroke-linejoin:miter;stroke-opacity:1" />
      <path
         d="M 424.66152,501.10792 L 374.57436,501.10792"
         id="path8607"
         style="fill:none;fill-opacity:0.75;fill-rule:evenodd;stroke:#000000;stroke-width:2.59711337px;stroke-linecap:butt;stroke-linejoin:miter;stroke-opacity:1" />
      <path
         style="font-size:20.77690697px;font-style:normal;font-variant:normal;font-weight:normal;font-stretch:normal;line-height:100%;writing-mode:lr-tb;text-anchor:start;fill:#000000;fill-opacity:1;stroke:none;stroke-width:1pt;stroke-linecap:butt;stroke-linejoin:miter;stroke-opacity:1;font-family:Bitstream Vera Sans"
         d="M 361.0381,461.23459 L 358.25837,468.7723 L 363.82796,468.7723 L 361.0381,461.23459 M 359.88157,459.21574 L 362.20477,459.21574 L 367.97726,474.36218 L 365.84681,474.36218 L 364.4671,470.47666 L 357.63953,470.47666 L 356.25981,474.36218 L 354.09893,474.36218 L 359.88157,459.21574"
         id="text8609" />
      <path
         d="M 424.27151,453.35051 C 440.94482,453.47873 457.65075,452.94351 474.29755,454.03048 C 481.47878,455.19867 484.48501,457.15398 488.75404,461.14239 C 495.64177,467.83788 498.13292,478.24883 497.32376,487.44803 C 496.8487,494.58778 493.41111,502.44644 487.26146,507.16649 C 483.6523,509.90449 479.51925,511.61082 474.15058,512.55028 C 464.10819,513.87779 453.9475,513.30183 443.84616,513.48667 C 437.32107,513.49264 430.7953,513.49487 424.27151,513.64062 C 424.27151,493.54393 424.27151,473.4472 424.27151,453.35051 z"
         id="path8613"
         sodipodi:nodetypes="ccccccccc"
         style="fill:none;fill-opacity:1;fill-rule:evenodd;stroke:#0000a9;stroke-width:2.59711337;stroke-linecap:butt;stroke-linejoin:round;marker:none;marker-start:none;marker-mid:none;marker-end:none;stroke-miterlimit:4;stroke-dashoffset:0;stroke-opacity:1;visibility:visible;display:inline;overflow:visible" />
      <path
         d="M 557.06794,483.1629 L 506.98077,483.1629"
         id="path8615"
         style="fill:none;fill-opacity:0.75;fill-rule:evenodd;stroke:#000000;stroke-width:2.59711337px;stroke-linecap:butt;stroke-linejoin:miter;stroke-opacity:1" />
      <path
         style="font-size:20.77690697px;font-style:normal;font-variant:normal;font-weight:normal;font-stretch:normal;line-height:100%;writing-mode:lr-tb;text-anchor:start;fill:#000000;fill-opacity:1;stroke:none;stroke-width:1pt;stroke-linecap:butt;stroke-linejoin:miter;stroke-opacity:1;font-family:Bitstream Vera Sans"
         d="M 563.9839,475.44773 L 566.18535,475.44773 L 570.38537,481.67675 L 574.55496,475.44773 L 576.75642,475.44773 L 571.39987,483.3811 L 571.39987,490.59418 L 569.34044,490.59418 L 569.34044,483.3811 L 563.9839,475.44773"
         id="text8617" />
      <path
         d="M 262.63966,439.45212 A 1.7046324,1.767767 0 1 1 259.2304,439.45212 A 1.7046324,1.767767 0 1 1 262.63966,439.45212 z"
         id="path8621"
         sodipodi:cx="260.93503"
         sodipodi:cy="439.45212"
         sodipodi:rx="1.7046324"
         sodipodi:ry="1.767767"
         sodipodi:type="arc"
         style="fill:none;fill-opacity:1;fill-rule:evenodd;stroke:#0000a9;stroke-width:1;stroke-linecap:butt;stroke-linejoin:round;marker:none;marker-start:none;marker-mid:none;marker-end:none;stroke-miterlimit:4;stroke-dashoffset:0;stroke-opacity:1;visibility:visible;display:inline;overflow:visible"
         transform="matrix(2.597113,0,0,-2.597113,-174.5931,1624.791)" />
      <path
         style="font-size:20.77690697px;font-style:normal;font-variant:normal;font-weight:normal;font-stretch:normal;line-height:100%;writing-mode:lr-tb;text-anchor:start;fill:#000000;fill-opacity:1;stroke:none;stroke-width:1pt;stroke-linecap:butt;stroke-linejoin:miter;stroke-opacity:1;font-family:Bitstream Vera Sans"
         d="M 358.48885,501.44772 L 358.48885,506.99703 L 361.77582,506.99703 C 362.87823,506.99703 363.69321,506.77046 364.22076,506.31731 C 364.75505,505.85741 365.0222,505.15741 365.02221,504.2173 C 365.0222,503.27044 364.75505,502.57382 364.22076,502.12744 C 363.69321,501.6743 362.87823,501.44773 361.77582,501.44772 L 358.48885,501.44772 M 358.48885,495.21871 L 358.48885,499.78395 L 361.52219,499.78395 C 362.52316,499.78396 363.26712,499.59797 363.75409,499.22598 C 364.2478,498.84724 364.49466,498.27236 364.49467,497.50133 C 364.49466,496.73709 364.2478,496.16559 363.75409,495.78683 C 363.26712,495.4081 362.52316,495.21872 361.52219,495.21871 L 358.48885,495.21871 M 356.43956,493.53464 L 361.67437,493.53464 C 363.23668,493.53466 364.44055,493.8593 365.28598,494.50856 C 366.13138,495.15785 366.55409,496.08105 366.5541,497.27814 C 366.55409,498.20473 366.33766,498.94193 365.90482,499.48974 C 365.47196,500.03758 364.83621,500.37913 363.99757,500.51439 C 365.00529,500.73082 365.78645,501.18396 366.34106,501.87381 C 366.9024,502.55691 367.18308,503.41247 367.18309,504.44049 C 367.18308,505.79316 366.72317,506.83809 365.80337,507.57529 C 364.88355,508.31249 363.57485,508.68109 361.87727,508.68109 L 356.43956,508.68109 L 356.43956,493.53464"
         id="text8623" />
    </g>
    <g
       id="g9597"
       transform="translate(84.87833,135.332)">
      <path
         style="font-size:20.77690697px;font-style:normal;font-variant:normal;font-weight:normal;font-stretch:normal;line-height:100%;writing-mode:lr-tb;text-anchor:start;fill:#000000;fill-opacity:1;stroke:none;stroke-width:1pt;stroke-linecap:butt;stroke-linejoin:miter;stroke-opacity:1;font-family:Bitstream Vera Sans"
         d="M 358.0608,288.23385 L 355.28108,295.77157 L 360.85067,295.77157 L 358.0608,288.23385 M 356.90427,286.215 L 359.22747,286.215 L 364.99996,301.36145 L 362.86952,301.36145 L 361.4898,297.47593 L 354.66224,297.47593 L 353.28252,301.36145 L 351.12164,301.36145 L 356.90427,286.215"
         id="text9395" />
      <path
         d="M 530.38571,293.66074 L 480.29853,293.66074"
         id="path9399"
         style="fill:none;fill-opacity:0.75;fill-rule:evenodd;stroke:#000000;stroke-width:2.59711337px;stroke-linecap:butt;stroke-linejoin:miter;stroke-opacity:1" />
      <path
         style="font-size:20.77690697px;font-style:normal;font-variant:normal;font-weight:normal;font-stretch:normal;line-height:100%;writing-mode:lr-tb;text-anchor:start;fill:#000000;fill-opacity:1;stroke:none;stroke-width:1pt;stroke-linecap:butt;stroke-linejoin:miter;stroke-opacity:1;font-family:Bitstream Vera Sans"
         d="M 537.12898,285.36146 L 539.33044,285.36146 L 543.53045,291.59047 L 547.70004,285.36146 L 549.9015,285.36146 L 544.54495,293.29483 L 544.54495,300.5079 L 542.48552,300.5079 L 542.48552,293.29483 L 537.12898,285.36146"
         id="text9401" />
      <path
         d="M 421.50737,293.66002 L 371.42019,293.66002"
         id="path9405"
         style="fill:none;fill-opacity:0.75;fill-rule:evenodd;stroke:#000000;stroke-width:2.59711337px;stroke-linecap:butt;stroke-linejoin:miter;stroke-opacity:1" />
      <path
         d="M 471.87869,190.70206 L 421.66994,219.69009 L 421.66994,161.71402 L 471.87869,190.70206 z"
         id="path9407"
         inkscape:flatsided="true"
         inkscape:randomized="0"
         inkscape:rounded="0"
         sodipodi:arg1="0"
         sodipodi:arg2="1.0471976"
         sodipodi:cx="438.40619"
         sodipodi:cy="190.70206"
         sodipodi:r1="33.4725"
         sodipodi:r2="16.73625"
         sodipodi:sides="3"
         sodipodi:type="star"
         style="fill:none;fill-opacity:1;fill-rule:evenodd;stroke:#0000a9;stroke-width:2.5999999;stroke-linecap:butt;stroke-linejoin:round;marker:none;marker-start:none;marker-mid:none;marker-end:none;stroke-miterlimit:4;stroke-dashoffset:0;stroke-opacity:1;visibility:visible;display:inline;overflow:visible"
         transform="translate(9.223147,103.0464)" />
      <path
         d="M 262.63966,439.45212 A 1.7046324,1.767767 0 1 1 259.2304,439.45212 A 1.7046324,1.767767 0 1 1 262.63966,439.45212 z"
         id="path9409"
         sodipodi:cx="260.93503"
         sodipodi:cy="439.45212"
         sodipodi:rx="1.7046324"
         sodipodi:ry="1.767767"
         sodipodi:type="arc"
         style="fill:none;fill-opacity:1;fill-rule:evenodd;stroke:#0000a9;stroke-width:1;stroke-linecap:butt;stroke-linejoin:round;marker:none;marker-start:none;marker-mid:none;marker-end:none;stroke-miterlimit:4;stroke-dashoffset:0;stroke-opacity:1;visibility:visible;display:inline;overflow:visible"
         transform="matrix(2.597113,0,0,2.597113,-251.4034,-847.8343)" />
    </g>
    <g
       id="g9584"
       transform="translate(84.87833,135.332)">
      <path
         style="font-size:20.77690697px;font-style:normal;font-variant:normal;font-weight:normal;font-stretch:normal;line-height:100%;writing-mode:lr-tb;text-anchor:start;fill:#000000;fill-opacity:1;stroke:none;stroke-width:1pt;stroke-linecap:butt;stroke-linejoin:miter;stroke-opacity:1;font-family:Bitstream Vera Sans"
         d="M 360.06083,379.13562 L 357.28111,386.67333 L 362.8507,386.67333 L 360.06083,379.13562 M 358.90431,377.11677 L 361.2275,377.11677 L 366.99999,392.26321 L 364.86955,392.26321 L 363.48983,388.37769 L 356.66227,388.37769 L 355.28255,392.26321 L 353.12167,392.26321 L 358.90431,377.11677"
         id="text9411" />
      <path
         d="M 532.21302,383.97849 L 482.12584,383.97849"
         id="path9415"
         style="fill:none;fill-opacity:0.75;fill-rule:evenodd;stroke:#000000;stroke-width:2.59711337px;stroke-linecap:butt;stroke-linejoin:miter;stroke-opacity:1" />
      <path
         style="font-size:20.77690697px;font-style:normal;font-variant:normal;font-weight:normal;font-stretch:normal;line-height:100%;writing-mode:lr-tb;text-anchor:start;fill:#000000;fill-opacity:1;stroke:none;stroke-width:1pt;stroke-linecap:butt;stroke-linejoin:miter;stroke-opacity:1;font-family:Bitstream Vera Sans"
         d="M 539.12904,376.26322 L 541.3305,376.26322 L 545.53052,382.49224 L 549.7001,376.26322 L 551.90156,376.26322 L 546.54501,384.19659 L 546.54501,391.40967 L 544.48558,391.40967 L 544.48558,384.19659 L 539.12904,376.26322"
         id="text9417" />
      <path
         d="M 423.50741,384.56178 L 373.42023,384.56178"
         id="path9421"
         style="fill:none;fill-opacity:0.75;fill-rule:evenodd;stroke:#000000;stroke-width:2.59711337px;stroke-linecap:butt;stroke-linejoin:miter;stroke-opacity:1" />
      <path
         d="M 471.87869,190.70206 L 421.66994,219.69009 L 421.66994,161.71402 L 471.87869,190.70206 z"
         id="path9423"
         inkscape:flatsided="true"
         inkscape:randomized="0"
         inkscape:rounded="0"
         sodipodi:arg1="0"
         sodipodi:arg2="1.0471976"
         sodipodi:cx="438.40619"
         sodipodi:cy="190.70206"
         sodipodi:r1="33.4725"
         sodipodi:r2="16.73625"
         sodipodi:sides="3"
         sodipodi:type="star"
         style="fill:none;fill-opacity:1;fill-rule:evenodd;stroke:#0000a9;stroke-width:2.5999999;stroke-linecap:butt;stroke-linejoin:round;marker:none;marker-start:none;marker-mid:none;marker-end:none;stroke-miterlimit:4;stroke-dashoffset:0;stroke-opacity:1;visibility:visible;display:inline;overflow:visible"
         transform="translate(1.121668,193.9482)" />
      <path
         d="M 262.63966,439.45212 A 1.7046324,1.767767 0 1 1 259.2304,439.45212 A 1.7046324,1.767767 0 1 1 262.63966,439.45212 z"
         id="path9425"
         sodipodi:cx="260.93503"
         sodipodi:cy="439.45212"
         sodipodi:rx="1.7046324"
         sodipodi:ry="1.767767"
         sodipodi:type="arc"
         style="fill:none;fill-opacity:1;fill-rule:evenodd;stroke:#0000a9;stroke-width:1;stroke-linecap:butt;stroke-linejoin:round;marker:none;marker-start:none;marker-mid:none;marker-end:none;stroke-miterlimit:4;stroke-dashoffset:0;stroke-opacity:1;visibility:visible;display:inline;overflow:visible"
         transform="matrix(2.597113,0,0,2.597113,-199.8912,-756.9325)" />
      <g
         id="g9427"
         transform="translate(8.66562,-58.83648)">
        <path
           d="M 424.65931,438.06477 C 428.16115,438.06477 433.60902,437.85614 434.80257,439.15514 C 435.99612,440.45413 436.93083,445.16006 438.01761,448.92104"
           id="path9429"
           sodipodi:nodetypes="czs"
           style="fill:none;fill-opacity:0.75;fill-rule:evenodd;stroke:#0000a9;stroke-width:2.5999999;stroke-linecap:round;stroke-linejoin:round;stroke-miterlimit:4;stroke-opacity:1" />
        <path
           d="M 441.80141,448.90871 C 438.29957,448.90871 432.8517,449.11733 431.65815,447.81834 C 430.4646,446.51934 429.52989,441.81341 428.44311,438.05243"
           id="path9431"
           sodipodi:nodetypes="czs"
           style="fill:none;fill-opacity:0.75;fill-rule:evenodd;stroke:#0000a9;stroke-width:2.5999999;stroke-linecap:round;stroke-linejoin:round;stroke-miterlimit:4;stroke-opacity:1" />
      </g>
    </g>
    <g
       id="g9554"
       transform="translate(84.87833,147.4879)">
      <path
         d="M 420.68429,567.78895 L 370.59712,567.78895"
         id="path9433"
         style="fill:none;fill-opacity:0.75;fill-rule:evenodd;stroke:#000000;stroke-width:2.59711337px;stroke-linecap:butt;stroke-linejoin:miter;stroke-opacity:1" />
      <path
         d="M 420.68431,602.10788 L 370.59715,602.10788"
         id="path9435"
         style="fill:none;fill-opacity:0.75;fill-rule:evenodd;stroke:#000000;stroke-width:2.59711337px;stroke-linecap:butt;stroke-linejoin:miter;stroke-opacity:1" />
      <path
         d="M 554.70144,585.66074 L 504.61426,585.66074"
         id="path9437"
         style="fill:none;fill-opacity:0.75;fill-rule:evenodd;stroke:#000000;stroke-width:2.59711337px;stroke-linecap:butt;stroke-linejoin:miter;stroke-opacity:1" />
      <path
         d="M 431.80235,555.52654 C 448.47566,555.65476 465.18159,555.11954 481.82838,556.20651 C 489.00961,557.3747 492.01585,559.33001 496.28488,563.31842 C 503.1726,570.01391 505.66376,580.42486 504.8546,589.62406 C 504.37954,596.76381 500.94194,604.62247 494.79229,609.34252 C 491.18313,612.08052 487.05009,613.78685 481.68141,614.72631 C 471.63903,616.05382 461.47834,615.47786 451.377,615.6627 C 444.85191,615.66867 438.32614,615.6709 431.80235,615.81665 C 431.80235,595.71996 431.80235,575.62323 431.80235,555.52654 z"
         id="path9439"
         sodipodi:nodetypes="ccccccccc"
         style="fill:none;fill-opacity:1;fill-rule:evenodd;stroke:#0000a9;stroke-width:2.59711337;stroke-linecap:butt;stroke-linejoin:round;marker:none;marker-start:none;marker-mid:none;marker-end:none;stroke-miterlimit:4;stroke-dashoffset:0;stroke-opacity:1;visibility:visible;display:inline;overflow:visible" />
      <path
         style="font-size:20.77690697px;font-style:normal;font-variant:normal;font-weight:normal;font-stretch:normal;line-height:100%;writing-mode:lr-tb;text-anchor:start;fill:#000000;fill-opacity:1;stroke:none;stroke-width:1pt;stroke-linecap:butt;stroke-linejoin:miter;stroke-opacity:1;font-family:Bitstream Vera Sans"
         d="M 357.06083,562.23459 L 354.28111,569.7723 L 359.8507,569.7723 L 357.06083,562.23459 M 355.90431,560.21574 L 358.2275,560.21574 L 363.99999,575.36218 L 361.86955,575.36218 L 360.48983,571.47666 L 353.66227,571.47666 L 352.28255,575.36218 L 350.12167,575.36218 L 355.90431,560.21574"
         id="text9441" />
      <path
         style="font-size:20.77690697px;font-style:normal;font-variant:normal;font-weight:normal;font-stretch:normal;line-height:100%;writing-mode:lr-tb;text-anchor:start;fill:#000000;fill-opacity:1;stroke:none;stroke-width:1pt;stroke-linecap:butt;stroke-linejoin:miter;stroke-opacity:1;font-family:Bitstream Vera Sans"
         d="M 354.51158,602.44772 L 354.51158,607.99703 L 357.79855,607.99703 C 358.90096,607.99703 359.71594,607.77046 360.24349,607.31731 C 360.77778,606.85741 361.04493,606.15741 361.04494,605.2173 C 361.04493,604.27044 360.77778,603.57382 360.24349,603.12744 C 359.71594,602.6743 358.90096,602.44773 357.79855,602.44772 L 354.51158,602.44772 M 354.51158,596.21871 L 354.51158,600.78395 L 357.54493,600.78395 C 358.54589,600.78396 359.28986,600.59797 359.77682,600.22598 C 360.27054,599.84724 360.5174,599.27236 360.51741,598.50133 C 360.5174,597.73709 360.27054,597.16559 359.77682,596.78683 C 359.28986,596.4081 358.54589,596.21872 357.54493,596.21871 L 354.51158,596.21871 M 352.4623,594.53464 L 357.6971,594.53464 C 359.25942,594.53466 360.46329,594.8593 361.30871,595.50856 C 362.15412,596.15785 362.57682,597.08105 362.57684,598.27814 C 362.57682,599.20473 362.3604,599.94193 361.92756,600.48974 C 361.49469,601.03758 360.85894,601.37913 360.0203,601.51439 C 361.02803,601.73082 361.80919,602.18396 362.36379,602.87381 C 362.92513,603.55691 363.20581,604.41247 363.20582,605.44049 C 363.20581,606.79316 362.74591,607.83809 361.82611,608.57529 C 360.90629,609.31249 359.59759,609.68109 357.9,609.68109 L 352.4623,609.68109 L 352.4623,594.53464"
         id="text9445" />
      <path
         style="font-size:20.77690697px;font-style:normal;font-variant:normal;font-weight:normal;font-stretch:normal;line-height:100%;writing-mode:lr-tb;text-anchor:start;fill:#000000;fill-opacity:1;stroke:none;stroke-width:1pt;stroke-linecap:butt;stroke-linejoin:miter;stroke-opacity:1;font-family:Bitstream Vera Sans"
         d="M 561.61738,577.94547 L 563.81884,577.94547 L 568.01886,584.17449 L 572.18844,577.94547 L 574.3899,577.94547 L 569.03336,585.87884 L 569.03336,593.09192 L 566.97393,593.09192 L 566.97393,585.87884 L 561.61738,577.94547"
         id="text9449" />
      <path
         d="M 262.63966,439.45212 A 1.7046324,1.767767 0 1 1 259.2304,439.45212 A 1.7046324,1.767767 0 1 1 262.63966,439.45212 z"
         id="path9473"
         sodipodi:cx="260.93503"
         sodipodi:cy="439.45212"
         sodipodi:rx="1.7046324"
         sodipodi:ry="1.767767"
         sodipodi:type="arc"
         style="fill:none;fill-opacity:1;fill-rule:evenodd;stroke:#0000a9;stroke-width:1;stroke-linecap:butt;stroke-linejoin:round;marker:none;marker-start:none;marker-mid:none;marker-end:none;stroke-miterlimit:4;stroke-dashoffset:0;stroke-opacity:1;visibility:visible;display:inline;overflow:visible"
         transform="matrix(2.597113,0,0,-2.597113,-252.4927,1709.002)" />
      <path
         d="M 262.63966,439.45212 A 1.7046324,1.767767 0 1 1 259.2304,439.45212 A 1.7046324,1.767767 0 1 1 262.63966,439.45212 z"
         id="path9475"
         sodipodi:cx="260.93503"
         sodipodi:cy="439.45212"
         sodipodi:rx="1.7046324"
         sodipodi:ry="1.767767"
         sodipodi:type="arc"
         style="fill:none;fill-opacity:1;fill-rule:evenodd;stroke:#0000a9;stroke-width:1;stroke-linecap:butt;stroke-linejoin:round;marker:none;marker-start:none;marker-mid:none;marker-end:none;stroke-miterlimit:4;stroke-dashoffset:0;stroke-opacity:1;visibility:visible;display:inline;overflow:visible"
         transform="matrix(2.597113,0,0,-2.597113,-252.4034,1743.559)" />
    </g>
  </g>
  <path
     d="M 526.60368,31.498367 L 476.5165,31.498367"
     id="path6806"
     style="fill:none;fill-opacity:0.75;fill-rule:evenodd;stroke:#000000;stroke-width:2.59711337px;stroke-linecap:butt;stroke-linejoin:miter;stroke-opacity:1" />
  <path
     style="font-size:20.77690697px;font-style:normal;font-variant:normal;font-weight:normal;font-stretch:normal;line-height:100%;writing-mode:lr-tb;text-anchor:start;fill:#000000;fill-opacity:1;stroke:none;stroke-width:1pt;stroke-linecap:butt;stroke-linejoin:miter;stroke-opacity:1;font-family:Bitstream Vera Sans"
     d="M 533.51966,23.7831 L 535.72112,23.7831 L 539.92114,30.012114 L 544.09072,23.7831 L 546.29218,23.7831 L 540.93564,31.71647 L 540.93564,38.929546 L 538.87621,38.929546 L 538.87621,31.71647 L 533.51966,23.7831"
     id="text6808" />
  <path
     d="M 426.28798,31.498367 L 376.2008,31.498367"
     id="path6812"
     style="fill:none;fill-opacity:0.75;fill-rule:evenodd;stroke:#000000;stroke-width:2.59711337px;stroke-linecap:butt;stroke-linejoin:miter;stroke-opacity:1" />
  <path
     transform="translate(3.9022416,-159.11527)"
     style="fill:none;fill-opacity:1;fill-rule:evenodd;stroke:#0000a9;stroke-width:2.5999999;stroke-linecap:butt;stroke-linejoin:round;stroke-miterlimit:4;stroke-dashoffset:0;stroke-opacity:1;marker:none;marker-start:none;marker-mid:none;marker-end:none;visibility:visible;display:inline;overflow:visible"
     d="M 471.87869,190.70206 L 421.66994,219.69009 L 421.66994,161.71402 L 471.87869,190.70206 z"
     id="path6046" />
</svg>
